<?xml version="1.0" standalone="no"?><!DOCTYPE svg PUBLIC "-//W3C//DTD SVG 1.1//EN" "http://www.w3.org/Graphics/SVG/1.1/DTD/svg11.dtd"><svg t="1636717562889" class="icon" viewBox="0 0 1024 1024" version="1.1" xmlns="http://www.w3.org/2000/svg" p-id="1913" xmlns:xlink="http://www.w3.org/1999/xlink" width="200" height="200"><defs><style type="text/css"></style></defs><path d="M512 976c-256.26 0-464-207.73999999-464-464S255.74 48 512 48 976 255.74 976 512 768.26 976 512 976z m0-64.00000001c220.914 0 400-179.086 399.99999999-399.99999999s-179.086-400-399.99999999-399.99999999-400 179.086-399.99999999 399.99999999 179.086 400 399.99999999 399.99999999z m-64.87-203.64099999l-0.37799999-0.36-0.37700001-0.372L273.71 534.962a31.921 31.921 0 0 1-6.656-9.703 31.826 31.826 0 0 1-2.62-10.422l-0.04-0.568-0.037-0.8-0.02-0.633 0-0.501c0-0.425 0.009-0.848 0.025-1.27l0.03299999-0.662 0.04000001-0.574a31.847 31.847 0 0 1 8.254-19.054l0.25-0.27 0.4-0.41999999 0.37-0.37800001 172.666-172.665c12.497-12.496 32.758-12.496 45.255 0 12.372 12.372 12.495 32.354 0.37000001 44.878l-0.37000001 0.377-118.037 118.038L728 480.335c17.67299999 0 32 14.327 32 32 0 17.49599999-14.042 31.713-31.47 31.996l-0.52999999 0.004-354.40800001 0L491.63 662.373c12.497 12.496 12.497 32.758 0 45.254-12.248 12.249-31.955 12.492-44.5 0.732z" fill="#FFA600" p-id="1914"></path></svg>