<?xml version="1.0" standalone="no"?><!DOCTYPE svg PUBLIC "-//W3C//DTD SVG 1.1//EN" "http://www.w3.org/Graphics/SVG/1.1/DTD/svg11.dtd"><svg t="1637155837284" class="icon" viewBox="0 0 1024 1024" version="1.1" xmlns="http://www.w3.org/2000/svg" p-id="8109" xmlns:xlink="http://www.w3.org/1999/xlink" width="200" height="200"><defs><style type="text/css"></style></defs><path d="M710.826667 801.706667c-79.36 0-155.306667-34.133333-208.213334-93.44l12.8-11.52c49.493333 55.893333 120.746667 87.893333 195.413334 87.893333 143.786667 0 261.12-116.906667 261.12-261.12 0-143.786667-116.906667-261.12-261.12-261.12-76.8 0-149.333333 33.706667-198.826667 92.16l-12.8-11.093333c52.906667-62.293333 130.133333-98.133333 212.053333-98.133334 153.173333 0 278.186667 124.586667 278.186667 278.186667s-125.44 278.186667-278.613333 278.186667z" fill="" p-id="8110"></path><path d="M308.906667 801.706667c-151.04 0-273.92-122.88-273.92-273.92 0-151.04 122.88-273.92 273.92-273.92 151.04 0 273.92 122.88 273.92 273.92 0 151.04-122.88 273.92-273.92 273.92z m0-530.346667c-141.653333 0-256.853333 115.2-256.853334 256.853333s115.2 256.853333 256.853334 256.853334 256.853333-115.2 256.853333-256.853334-115.2-256.853333-256.853333-256.853333zM741.12 302.933333c-3.413333 0-6.826667 0-10.666667-0.426666-9.386667-1.28-17.92-3.413333-24.32-6.826667-12.373333-5.973333-13.226667-13.653333-12.8-17.493333 1.706667-13.653333 22.186667-17.493333 41.813334-14.933334 19.626667 2.133333 38.826667 10.666667 37.12 24.32-0.426667 3.84-3.413333 11.093333-16.64 14.08-4.266667 0.853333-9.386667 1.28-14.506667 1.28z m-27.733333-22.613333c3.84 1.706667 9.813333 3.84 18.773333 5.12 8.96 0.853333 15.36 0.426667 19.2-0.426667-3.84-1.706667-9.813333-3.84-18.773333-5.12-8.533333-1.28-14.933333-0.426667-19.2 0.426667z" fill="" p-id="8111"></path><path d="M308.906667 568.32c-22.186667 0-40.106667-17.92-40.106667-40.106667s17.92-40.106667 40.106667-40.106666 40.106667 17.92 40.106666 40.106666c0.426667 21.76-17.92 40.106667-40.106666 40.106667z m0-63.573333c-12.8 0-23.04 10.24-23.04 23.04s10.24 23.04 23.04 23.04 23.04-10.24 23.04-23.04-10.24-23.04-23.04-23.04z" fill="" p-id="8112"></path><path d="M300.373333 558.08h17.066667V793.6h-17.066667zM300.373333 262.826667h17.066667v235.093333h-17.066667z" fill="" p-id="8113"></path><path d="M300.373333 560.64h17.066667v232.533333h-17.066667zM300.373333 262.826667h17.066667V494.933333h-17.066667zM338.231467 545.271467l164.424533 164.424533-12.066133 12.0704-164.424534-164.424533zM127.6544 334.242133l164.424533 164.424534-12.066133 12.0704L115.584 346.312533zM341.76 519.68h232.533333v17.066667H341.76zM43.946667 519.68h232.533333v17.066667H43.946667zM490.816 334.472533l12.066133 12.066134-164.424533 164.424533-12.066133-12.066133zM279.786667 545.045333l12.066133 12.0704-164.424533 164.424534-12.066134-12.0704z" fill="" p-id="8114"></path></svg>