<?xml version="1.0" standalone="no"?><!DOCTYPE svg PUBLIC "-//W3C//DTD SVG 1.1//EN" "http://www.w3.org/Graphics/SVG/1.1/DTD/svg11.dtd"><svg t="1637153658868" class="icon" viewBox="0 0 1024 1024" version="1.1" xmlns="http://www.w3.org/2000/svg" p-id="6882" xmlns:xlink="http://www.w3.org/1999/xlink" width="200" height="200"><defs><style type="text/css"></style></defs><path d="M880 96c0 26.56-21.44 48-48 48-21.12 0-38.72-13.44-45.12-32.32-0.64-1.6-0.96-3.52-1.28-5.44-0.96-3.2-1.6-6.72-1.6-10.24 0-26.56 21.44-48 48-48s48 21.44 48 48zM768 593.28c26.24 0 46.4-18.56 73.6-12.48 48.32 10.56 85.44 59.52 103.36 103.36a205.664 205.664 0 0 1 0 154.56 199.36 199.36 0 0 1-41.28 63.04c-17.28 17.92-38.08 32.64-60.8 42.56-23.04 10.24-48.32 15.68-74.88 15.68s-51.84-5.44-74.88-15.68c-22.72-9.92-43.52-24.64-60.8-42.56a199.36 199.36 0 0 1-41.28-63.04 206.08 206.08 0 0 1 0-154.56c13.44-32.64 34.56-65.6 64-86.4 15.04-10.24 32.32-17.28 50.56-17.92 22.4-0.64 40.64 13.44 62.4 13.44zM79.04 684.16c13.44-32.64 34.56-65.6 64-86.4 15.04-10.24 32.32-17.28 50.56-17.92 22.4-0.64 40.64 13.44 62.4 13.44 26.24 0 46.4-18.56 73.6-12.48 48.32 10.56 85.44 59.52 103.36 103.36a205.664 205.664 0 0 1 0 154.56 199.36 199.36 0 0 1-41.28 63.04c-17.28 17.92-38.08 32.64-60.8 42.56-23.04 10.24-48.32 15.68-74.88 15.68s-51.84-5.44-74.88-15.68c-22.72-9.92-43.52-24.64-60.8-42.56a199.36 199.36 0 0 1-41.28-63.04 206.08 206.08 0 0 1 0-154.56z" fill="#E0EBFE" p-id="6883"></path><path d="M97.28 924a224.096 224.096 0 0 0 70.816 49.536C195.616 985.792 225.184 992 256 992s60.384-6.208 87.68-18.368a223.872 223.872 0 0 0 70.848-49.44 231.232 231.232 0 0 0 48.096-73.44c11.52-28.448 17.376-58.56 17.376-89.472 0-30.72-5.856-60.704-17.408-89.216-20.576-50.4-64.544-109.056-126.016-122.496-21.6-4.8-43.872 1.28-59.2 6.496l-0.512 0.16c15.04-106.176 42.016-184.8 84.064-244.96 12.384-17.6 26.048-34.752 40.64-50.88 49.408-54.272 107.84-96.256 169.12-121.472 32.288-13.536 66.336-22.72 101.344-27.392 25.984-3.712 51.808-4.032 79.136-4.32l13.76-0.288c-37.184 49.152-55.936 119.04-56.768 213.632a850.368 850.368 0 0 0 31.616 232.96 110.464 110.464 0 0 0-35.296-5.632c-22.816 0.8-46.112 8.896-67.872 23.744-39.424 27.84-62.624 69.92-75.2 100.48A236.288 236.288 0 0 0 544 761.28c0 30.944 5.856 61.024 17.536 89.792 11.744 28.064 27.84 52.64 47.744 72.928a224.096 224.096 0 0 0 70.816 49.536c27.52 12.256 57.088 18.464 87.904 18.464s60.384-6.208 87.68-18.368a223.872 223.872 0 0 0 70.848-49.44 231.232 231.232 0 0 0 48.096-73.44c11.52-28.448 17.376-58.56 17.376-89.472 0-30.72-5.856-60.704-17.408-89.216-20.576-50.4-64.544-109.056-126.016-122.496-21.664-4.8-43.84 1.28-59.168 6.496-5.44 1.856-10.048 2.88-14.56 3.52-23.136-77.952-35.264-158.08-34.688-238.816 0.704-81.248 14.944-142.08 42.688-184.512 11.84 14.592 29.6 23.744 49.152 23.744 35.296 0 64-28.704 64-64s-28.704-64-64-64c-27.84 0-51.328 17.92-60.096 42.784-7.04 0.16-14.08 0.32-21.12 0.416-27.136 0.32-55.232 0.64-83.136 4.64a428.768 428.768 0 0 0-109.248 29.504c-65.504 26.976-127.904 71.744-180.48 129.504a565.216 565.216 0 0 0-43.2 54.08c-45.92 65.664-74.816 150.912-90.4 265.6-2.56-0.608-5.12-1.184-8.128-2.208-11.008-3.776-24.768-8.448-43.488-8.448h-0.224c-22.816 0.8-46.112 8.896-67.872 23.744-39.424 27.84-62.624 69.92-75.2 100.48A236.32 236.32 0 0 0 32 761.28c0 30.944 5.856 61.024 17.536 89.792 11.744 28.064 27.84 52.64 47.744 72.928zM768 625.28c16.64 0 30.72-4.8 42.016-8.64 10.016-3.392 17.216-6.272 24.736-4.576 35.04 7.68 65.728 47.808 80.544 84.128A172.16 172.16 0 0 1 928 761.28c0 22.656-4.256 44.64-12.576 65.088a167.424 167.424 0 0 1-34.752 53.184 159.936 159.936 0 0 1-50.816 35.52 154.88 154.88 0 0 1-123.936-0.096 160.192 160.192 0 0 1-50.784-35.648 166.464 166.464 0 0 1-34.432-52.64A172.864 172.864 0 0 1 608 761.28c0-22.4 4.256-44.32 12.64-64.96 13.12-31.904 31.904-57.6 52.448-72.128 7.872-5.376 20.16-11.904 33.984-12.352 5.6 0 12.48 2.336 20.448 5.056 10.944 3.744 24.576 8.384 40.48 8.384zM832 64c17.632 0 32 14.368 32 32s-14.368 32-32 32a31.456 31.456 0 0 1-30.144-21.952l-0.96-4.384A20.16 20.16 0 0 1 800 96c0-17.632 14.368-32 32-32zM108.64 696.32c13.12-31.904 31.904-57.6 52.448-72.128 7.872-5.376 20.16-11.904 33.984-12.352 5.6 0 12.48 2.336 20.448 5.056 10.944 3.744 24.576 8.384 40.48 8.384 16.64 0 30.72-4.8 42.016-8.64 10.016-3.392 17.248-6.272 24.736-4.576 35.04 7.68 65.728 47.808 80.544 84.128A172.16 172.16 0 0 1 416 761.28c0 22.656-4.256 44.64-12.576 65.088a167.424 167.424 0 0 1-34.752 53.184 159.936 159.936 0 0 1-50.816 35.52 154.88 154.88 0 0 1-123.936-0.096 160.192 160.192 0 0 1-50.784-35.648 166.464 166.464 0 0 1-34.432-52.64A172.864 172.864 0 0 1 96 761.28c0-22.4 4.256-44.32 12.64-64.96z" fill="#5465CF" p-id="6884"></path><path d="M176.96 863.04a16 16 0 0 0 11.232-27.392C170.016 817.728 160 793.728 160 768s10.016-49.728 28.16-67.648a16 16 0 1 0-22.432-22.784C141.408 701.536 128 733.664 128 768s13.376 66.464 37.728 90.432a15.936 15.936 0 0 0 11.2 4.608zM700.352 677.728a16 16 0 0 0-22.624-0.16C653.408 701.536 640 733.664 640 768s13.376 66.464 37.728 90.432a15.936 15.936 0 0 0 22.624-0.16 16 16 0 0 0-0.16-22.624C682.016 817.728 672 793.728 672 768s10.016-49.728 28.16-67.648a16 16 0 0 0 0.192-22.624z" fill="#5465CF" p-id="6885"></path></svg>